<?xml version="1.0" encoding="UTF-8" standalone="no"?>
<svg version="1.1" id="svg" x="0px" y="0px" viewBox="0 0 244.7 234.3" xml:space="preserve" width="244.7" height="234.3"
  xmlns:inkscape="http://www.inkscape.org/namespaces/inkscape"
  xmlns="http://www.w3.org/2000/svg"
  xmlns:svg="http://www.w3.org/2000/svg">
  <path id="path" fill="#ffffff" d="m 244.7,139.9 -37.4,-12.2 26.6,-26 -10.5,-10.7 -32.2,31.5 -22.8,-7.4 34.1,-33.3 -46.9,-6.8 14,-19.2 44.6,6.4 2.1,-14.8 L 179.6,42.1 202.7,10.4 190.6,1.6 167.5,33.3 151,0 137.6,6.6 157.6,46.9 143.5,66.3 122.3,23.6 101.3,66.2 87.4,47 107.3,6.6 93.8,0 77.4,33.3 54.3,1.5 42.2,10.3 65.3,42.1 28.5,47.5 30.7,62.3 75.2,55.8 89.1,75 l -47,6.9 34.1,33.2 -22.7,7.4 -32.3,-31.4 -10.5,10.8 26.6,25.9 -37.3,12.1 4.6,14.3 37.3,-12.1 -6.2,36.6 14.8,2.5 7.6,-44.4 22.7,-7.4 -8,46.8 42,-22.1 v 24.8 l -39.9,21 7,13.3 32.9,-17.3 v 38.4 h 15 v -38.4 l 32.9,17.2 7,-13.3 -39.8,-20.9 v -24.8 l 42.1,22.1 -8,-46.7 22.7,7.4 7.6,44.4 14.8,-2.5 -6.3,-36.6 37.4,12.1 z m -92.7,8.8 -29.6,-15.6 -29.6,15.6 5.6,-33 -24,-23.3 33.1,-4.8 3.8,-7.6 v 0 l 11,-22.4 14.8,30 8.5,1.2 v 0 l 24.6,3.6 -24,23.4 1.5,8.5 v 0 z" />
</svg>
